# xmcd
#
# Track frame offsets:
#	150
#	23055
#	41880
#	61812
#	78987
#	97942
#	124352
#	137507
#	155580
#	169355
#	192252
#	211100
#	223522
#	240052
#
# Disc length: 3440 seconds
#
# Revision: 1
# Processed by: cddbd v1.5.1PL2 Copyright (c) Steve Scherf et al.
# Submitted via: audiograbber 1.83.01
#
DISCID=b60d6e0e
DTITLE=George Nussbaumer - The Love Within
DYEAR=1999
DGENRE=Blues
TTITLE0=Strong
TTITLE1=The Love Within
TTITLE2=I Want Love Back
TTITLE3=You Know What I Mean
TTITLE4=Louisiana
TTITLE5=It´s Crazy But I Do
TTITLE6=That You Feel Good
TTITLE7=Sweet Women
TTITLE8=Round and Bound
TTITLE9=Life By The Drop
TTITLE10=Little Letter
TTITLE11=Bad News From Home
TTITLE12=Amazing Grace
TTITLE13=Don´t Loose Your Dream
EXTD=
EXTT0=
EXTT1=
EXTT2=
EXTT3=
EXTT4=
EXTT5=
EXTT6=
EXTT7=
EXTT8=
EXTT9=
EXTT10=
EXTT11=
EXTT12=
EXTT13=
PLAYORDER=
